<?xml version="1.0" encoding="UTF-8"?>
<!DOCTYPE svg PUBLIC "-//W3C//DTD SVG 1.1 Tiny//EN" "http://www.w3.org/Graphics/SVG/1.1/DTD/svg11-tiny.dtd">
<svg baseProfile="tiny" xmlns="http://www.w3.org/2000/svg" xmlns:xlink="http://www.w3.org/1999/xlink" width="60" height="80" viewBox="0 0 60 80">
<g>
<g>
<rect fill="none" width="60" height="80"/>
<g>
<linearGradient id="XMLID_21_" gradientUnits="userSpaceOnUse" x1="18.0986" y1="28.2227" x2="39.2697" y2="53.6735">
<stop offset="0" style="stop-color:#B3DDFF"/>
<stop offset="1" style="stop-color:#084296"/>
</linearGradient>
<path fill="url(#XMLID_21_)" d="M38.073,34.75l1.201,0.773v-1.719c0,0,2.647-1.25,3.949-1.801c0,0,2.513,0.199,3.247,0.504       l1.017,2.721c0.871,0.301,2,0.953,2,0.953l2.66-1.197c1.408,0.602,2.571,1.59,3.437,3.113l-1.604,2.945       c0,0,0.636,1.232,0.871,1.799l3.161,1.029c0.36,1.24,0.231,4.316,0.231,4.316l-2.782,1.91l-0.823,1.219l1.889,2.832       c0,0-2.489,3.52-5.923,5.064l-1.974-1.889v2.059l-2.919,2.146c-1.649-0.043-3.278-0.518-3.948-0.857l-1.029-3.434       c0,0-1.438-0.684-1.6-0.928l-2.606,1.873c0,0-2.695-2.1-3.348-3.605l1.288-3.006l-0.772-1.373l-2.146-0.342       c0,0-3.69,2.832-9.527,4.979l-0.601-0.859l-2.061,1.287c0,0-2.623,0.209-5.407-0.6l0.002-2.221l-2.066,1.258       c0,0-4.153-2.566-5.488-4.531l1.557-2.236l-2.571,1.395c0,0-2.588-2.959-3.451-6.887L4.512,39.9l-2.857-0.018       c-0.404-1.445-0.565-5.935-0.27-7.24l1.497-1.24L1.666,30.67c0.81-2.693,3.152-5.836,3.152-5.836l2.057-0.719l-0.646-1.125       c0,0,5.15-3.777,11.059-5.07l0.854,0.883l1.76-0.773c1.954-0.031,4.985,0.205,6.309,1.014l0.04,1.545l2.018-0.775       c1.971,0.777,4.542,2.955,5.172,4.123l-1.287,2.402l2.402-0.688c1.48,1.615,2.559,5.166,2.918,6.695l-1.598,1.107L38.073,34.75       z M15.842,30.459c-2.746,3.861-0.001,12.277,6.181,12.531C25.626,38.36,20.734,30.03,15.842,30.459z M41.192,42.846       c-1.059,3.75,1.944,7.354,5.611,7.363C48.287,45.309,43.137,42.045,41.192,42.846z"/>
<g>
<g>
<linearGradient id="XMLID_22_" gradientUnits="userSpaceOnUse" x1="21.4502" y1="42.9629" x2="12.1075" y2="35.028">
<stop offset="0" style="stop-color:#8CC2EA"/>
<stop offset="0.5" style="stop-color:#5AA7E0"/>
<stop offset="1" style="stop-color:#0046B7"/>
</linearGradient>
<path fill="url(#XMLID_22_)" d="M15.471,29.481c-4.608,6.27,0.854,14.462,6.697,14.675         C12.783,52.047,2.544,32.381,15.471,29.481z"/>
<g>
<g>
<polygon fill="#3366CC" points="19.102,21.999 24.867,19.653 25.103,22.504 19.143,25.366 "/>
</g>
<g>
<polygon fill="#0046B7" points="13.457,49.441 19.223,45.961 17.746,48.633 12.005,52.188 "/>
</g>
<g>
<polygon fill="#8CC2EA" points="2.503,33.112 8.456,29.973 11.512,30.413 5.575,33.547 "/>
</g>
<g>
<polygon fill="#0046B7" points="19.291,50.463 25.026,46.988 24.994,50.184 19.289,53.738 "/>
</g>
<g>
<polygon fill="#3366CC" points="5.422,25.889 11.394,22.778 13.972,24.836 7.991,27.817 "/>
</g>
<g>
<polygon fill="#0046B7" points="24.675,48.018 30.412,44.629 31.933,47.691 26.229,51.148 "/>
</g>
<g>
<polygon fill="#3366CC" points="11.468,21.629 16.75,19.37 18.981,22.235 13.085,24.854 "/>
</g>
<g>
<polygon fill="#0046B7" points="27.909,43 33.679,39.752 35.926,42.461 30.716,45.078 "/>
</g>
<g>
<polygon fill="#0046B7" points="28.3,36.549 34.126,33.999 36.799,34.659 31.604,36.963 "/>
</g>
<g>
<polygon fill="#3366CC" points="26.362,26.461 32.06,24.038 30.631,26.323 24.727,29.25 "/>
</g>
<linearGradient id="XMLID_23_" gradientUnits="userSpaceOnUse" x1="13.3999" y1="22.6548" x2="20.1869" y2="53.7725">
<stop offset="0" style="stop-color:#CFECFF"/>
<stop offset="0.5" style="stop-color:#5AA7E0"/>
<stop offset="1" style="stop-color:#0046B7"/>
</linearGradient>
<path fill="url(#XMLID_23_)" d="M9.347,22.612c0,0,1.672-0.855,2.117-0.99l5.263-2.252c0,0-1.032,0.314-1.135,0.365          L9.347,22.612z"/>
<linearGradient id="XMLID_24_" gradientUnits="userSpaceOnUse" x1="19.7827" y1="21.2617" x2="26.5667" y2="52.3659">
<stop offset="0" style="stop-color:#CFECFF"/>
<stop offset="0.5" style="stop-color:#5AA7E0"/>
<stop offset="1" style="stop-color:#0046B7"/>
</linearGradient>
<path fill="url(#XMLID_24_)" d="M14.342,21.202c0.813,0.016,3.73,0.355,4.744,0.793l5.771-2.355          c-1.953-0.646-5.16-0.486-5.272-0.482L14.342,21.202z"/>
<linearGradient id="XMLID_25_" gradientUnits="userSpaceOnUse" x1="26.2988" y1="19.8418" x2="33.0828" y2="50.9459">
<stop offset="0" style="stop-color:#CFECFF"/>
<stop offset="0.5" style="stop-color:#5AA7E0"/>
<stop offset="1" style="stop-color:#0046B7"/>
</linearGradient>
<path fill="url(#XMLID_25_)" d="M22.2,23.292c0.871,0.467,3.412,2.221,4.16,3.168l5.699-2.445          c-0.958-1.047-3.285-2.66-4.11-3.102L22.2,23.292z"/>
<linearGradient id="XMLID_26_" gradientUnits="userSpaceOnUse" x1="29.9644" y1="19.04" x2="36.748" y2="50.1424">
<stop offset="0" style="stop-color:#CFECFF"/>
<stop offset="0.5" style="stop-color:#5AA7E0"/>
<stop offset="1" style="stop-color:#0046B7"/>
</linearGradient>
<path fill="url(#XMLID_26_)" d="M31.603,36.952c0.171,0.867,0.268,3.355-0.061,5.097l5.235-2.55          c0.266-1.43,0.235-4.336,0.023-4.836L31.603,36.952z"/>
<linearGradient id="XMLID_27_" gradientUnits="userSpaceOnUse" x1="26.4639" y1="19.8076" x2="33.2463" y2="50.9043">
<stop offset="0" style="stop-color:#CFECFF"/>
<stop offset="0.5" style="stop-color:#5AA7E0"/>
<stop offset="1" style="stop-color:#0046B7"/>
</linearGradient>
<path fill="url(#XMLID_27_)" d="M30.72,45.086c-0.313,0.9-1.374,2.934-2.39,3.982l5.18-2.727          c1.028-1.041,2.197-3.131,2.41-3.883L30.72,45.086z"/>
<path fill="#3366CC" d="M24.687,47.996c0.179-0.143,0.769-0.709,0.909-0.932l0.313,0.217L24.687,47.996z"/>
<linearGradient id="XMLID_28_" gradientUnits="userSpaceOnUse" x1="22.6011" y1="20.6411" x2="29.3852" y2="51.7457">
<stop offset="0" style="stop-color:#CFECFF"/>
<stop offset="0.5" style="stop-color:#5AA7E0"/>
<stop offset="1" style="stop-color:#0046B7"/>
</linearGradient>
<path fill="url(#XMLID_28_)" d="M26.231,51.139c0,0-0.157,0.15-0.334,0.27l5.57-3.387c0.129-0.07,0.442-0.354,0.442-0.354          L26.231,51.139z"/>
<path fill="#8CC2EA" d="M13.085,24.846c0.237-0.055,0.953-0.211,1.298-0.223l-0.004-0.412L13.085,24.846z"/>
<path fill="#8CC2EA" d="M19.152,25.368c0.152,0.047,1.291,0.563,1.467,0.676l1.114-1.938L19.152,25.368z"/>
<path fill="#8CC2EA" d="M24.753,29.26c0.11,0.125,0.845,1.049,0.919,1.174l5.814-2.805          c-0.175-0.242-0.757-1.215-0.857-1.303L24.753,29.26z"/>
<path fill="#3366CC" d="M27.985,35.147c0,0,0.304,1.254,0.328,1.396l5.813-2.541c0,0-0.216-1.637-0.296-1.813L27.985,35.147          z"/>
<path fill="#3366CC" d="M27.905,42.967c0.087-0.174,0.35-1.277,0.35-1.277l1.632,0.174          C29.887,41.863,28.243,42.826,27.905,42.967z"/>
<polyline fill="#0046B7" points="28.495,29.086 31.532,27.645 33.882,26.864 "/>
<linearGradient id="XMLID_29_" gradientUnits="userSpaceOnUse" x1="29.7622" y1="19.0801" x2="36.5482" y2="50.1934">
<stop offset="0" style="stop-color:#CFECFF"/>
<stop offset="0.5" style="stop-color:#5AA7E0"/>
<stop offset="1" style="stop-color:#0046B7"/>
</linearGradient>
<path fill="url(#XMLID_29_)" d="M28.49,29.09c1.045,1.488,2.108,3.572,2.37,4.623l5.044-2.314          c-0.272-1.143-1.55-4.025-2.059-4.568L28.49,29.09z"/>
<path fill="#5AA7E0" d="M31.608,36.954c0.309,1.441,0.117,4.517-0.066,5.117l-3.276-0.381          c-0.024,0.074-0.278,1.104-0.356,1.301l2.809,2.074c-0.322,1.168-1.617,3.254-2.414,4.043          c-0.032-0.021-2.617-1.951-2.71-2.012c-0.207,0.289-0.892,0.922-0.901,0.932l1.535,3.139          c-1.022,0.877-3.169,1.9-3.993,2.086l-1.503-3.068c-0.446,0.172-1.008,0.258-1.431,0.297l-0.018,3.277          c-0.78,0.109-3.433-0.041-4.517-0.453l-0.046-3.297c-0.634-0.17-1.241-0.541-1.254-0.551l-1.462,2.719          c-0.678-0.273-3.33-2.129-3.963-2.967l1.434-2.74c-0.313-0.275-0.931-0.969-1.082-1.275l-2.448,1.381          c-0.765-0.869-2.038-3.506-2.376-4.75l2.493-1.395c-0.003-0.012-0.339-1.232-0.345-1.593l-3.044-0.404          c-0.15-1.307-0.295-4.48-0.167-5.33l3.068,0.434c-0.006-0.234,0.254-1.477,0.258-1.49l-2.624-2.143          c0.085-0.551,1.521-3.416,2.215-4.023l2.571,1.926c0.047-0.15,1.05-1,1.061-1.01l-1.581-3.033          c0.839-0.588,2.77-1.705,3.995-2.141l1.642,3.23c0.01-0.004,1.014-0.229,1.279-0.227l-0.046-3.418          c1.352,0.021,3.834,0.432,4.757,0.783l0.043,3.375c0.154,0.043,1.378,0.611,1.492,0.68l1.573-2.758          c1.527,0.807,3.866,2.77,4.154,3.166l-1.638,2.787c0.015,0.01,0.886,1.107,0.939,1.197c0.095-0.037,2.797-1.334,2.829-1.352          c0.915,1.117,2.126,3.598,2.396,4.676l-2.879,1.391c-0.032-0.016,0.28,1.307,0.29,1.387L31.608,36.954z M13.932,29.946          c-3.701,1.252-5.327,5.865-3.657,10.25c1.653,4.348,5.925,6.713,9.572,5.34c3.653-1.352,5.345-5.83,3.749-10.054          C21.984,31.217,17.647,28.717,13.932,29.946z"/>
</g>
</g>
<g>
<g>
<polygon fill="#B3DDFF" points="34.309,37.551 37.167,35.889 39.883,37.438 37.237,39.28 "/>
</g>
<linearGradient id="XMLID_30_" gradientUnits="userSpaceOnUse" x1="-18.3643" y1="7.9131" x2="-15.4213" y2="20.2764" gradientTransform="matrix(0.9579 -0.021 0.0844 1.0421 59.8455 29.9322)">
<stop offset="0" style="stop-color:#CFECFF"/>
<stop offset="0.5" style="stop-color:#5AA7E0"/>
<stop offset="1" style="stop-color:#0046B7"/>
</linearGradient>
<path fill="url(#XMLID_30_)" d="M34.852,41.604c2.607-3.328,6.686-6.048,11.485-4.958c5.147,1.195,9.795,8.484,6.57,14.363         l-2.651,1.908c1.397-3.463,0.122-10.088-3.636-12.807C42.818,37.422,39.177,38.641,34.852,41.604z"/>
<g>
<polygon fill="#B3DDFF" points="31.105,45.348 33.695,43.67 36.605,43.109 33.984,44.879 "/>
</g>
<g>
<polygon fill="#0046B7" points="45.375,56.379 47.91,54.57 47.461,58.158 45.045,59.994 "/>
</g>
<g>
<polygon fill="#0046B7" points="50.362,52.814 52.917,50.994 54.538,53.705 52.315,55.83 "/>
</g>
<g>
<polygon fill="#8CC2EA" points="42.54,34.959 45.361,33.459 46.337,36.645 43.784,38.395 "/>
</g>
<g>
<polygon fill="#8CC2EA" points="50.994,45.848 53.597,44.029 56.542,44.996 54.156,46.76 "/>
</g>
<g>
<polygon fill="#3366CC" points="51.054,39.797 53.693,38.258 52.255,40.961 49.632,42.771 "/>
</g>
<path fill="#CFECFF" d="M40.217,34.938l2.621-1.402c0.745-0.172,1.807-0.299,2.523-0.076l-2.752,1.504         C42.243,34.745,40.537,34.827,40.217,34.938z"/>
<path fill="#8CC2EA" d="M49.258,37.967c0,0,1.617,1.211,1.776,1.886l2.635-1.554c-0.346-0.668-1.312-1.379-1.94-1.67         L49.258,37.967z"/>
<path fill="#0046B7" d="M54.102,46.703c0.374,0.703,0.351,2.145,0.262,2.506l2.251-1.762c0.292-0.93,0.026-2.17-0.093-2.461         L54.102,46.703z"/>
<path fill="#0046B7" d="M52.273,55.818c-0.127,0.578-1.38,1.635-1.38,1.635l2.804-2.432c0.475-0.637,0.795-1.266,0.795-1.266         L52.273,55.818z"/>
<linearGradient id="XMLID_31_" gradientUnits="userSpaceOnUse" x1="5.6567" y1="20.9814" x2="-5.7297" y2="15.1257" gradientTransform="matrix(0.9579 -0.021 0.1219 1.0413 43.3901 30.4688)">
<stop offset="0" style="stop-color:#B3DDFF"/>
<stop offset="0.5" style="stop-color:#5AA7E0"/>
<stop offset="1" style="stop-color:#0046B7"/>
</linearGradient>
<path fill="url(#XMLID_31_)" d="M40.907,41.674c-2.814,4.582,2.372,10.201,6.258,9.137c-2.434,3.6-6.63,2.342-8.979-1.455         C35.801,45.586,38.562,41.941,40.907,41.674z"/>
<g>
<linearGradient id="XMLID_32_" gradientUnits="userSpaceOnUse" x1="-25.29" y1="-1.6792" x2="-11.6269" y2="18.3253" gradientTransform="matrix(0.9579 -0.021 0.0844 1.0421 59.8455 29.9322)">
<stop offset="0" style="stop-color:#5AA7E0"/>
<stop offset="1" style="stop-color:#3366CC"/>
</linearGradient>
<path fill="url(#XMLID_32_)" d="M39.897,38.536l0.315-3.607c0.805-0.227,1.513-0.234,2.396,0.035l1.241,3.666L39.897,38.536          z"/>
<linearGradient id="XMLID_33_" gradientUnits="userSpaceOnUse" x1="-30.8252" y1="2.3096" x2="-17.7029" y2="21.5222" gradientTransform="matrix(0.9579 -0.021 0.0844 1.0421 59.8455 29.9322)">
<stop offset="0" style="stop-color:#5AA7E0"/>
<stop offset="1" style="stop-color:#3366CC"/>
</linearGradient>
<path fill="url(#XMLID_33_)" d="M34.87,42.264l-1.905-3.306c0.425-0.502,0.646-0.91,1.34-1.402l3.143,1.865L34.87,42.264z"/>
<linearGradient id="XMLID_34_" gradientUnits="userSpaceOnUse" x1="-36.2163" y1="5.5503" x2="-22.5509" y2="25.5581" gradientTransform="matrix(0.9579 -0.021 0.0844 1.0421 59.8455 29.9322)">
<stop offset="0" style="stop-color:#5AA7E0"/>
<stop offset="1" style="stop-color:#3366CC"/>
</linearGradient>
<path fill="url(#XMLID_34_)" d="M34.766,48.877l-3.501-0.896c-0.348-0.859-0.275-1.754-0.159-2.615l3.106-0.59          L34.766,48.877z"/>
<linearGradient id="XMLID_35_" gradientUnits="userSpaceOnUse" x1="-37.5059" y1="6.4204" x2="-23.8442" y2="26.4227" gradientTransform="matrix(0.9579 -0.021 0.0844 1.0421 59.8455 29.9322)">
<stop offset="0" style="stop-color:#5AA7E0"/>
<stop offset="1" style="stop-color:#3366CC"/>
</linearGradient>
<path fill="url(#XMLID_35_)" d="M39.084,54.615l-2.615,1.861c-0.774-0.471-1.337-0.998-1.856-1.816l1.39-3.076          L39.084,54.615z"/>
<linearGradient id="XMLID_36_" gradientUnits="userSpaceOnUse" x1="-34.0625" y1="4.127" x2="-20.4202" y2="24.1009" gradientTransform="matrix(0.9579 -0.021 0.0844 1.0421 59.8455 29.9322)">
<stop offset="0" style="stop-color:#5AA7E0"/>
<stop offset="1" style="stop-color:#3366CC"/>
</linearGradient>
<path fill="url(#XMLID_36_)" d="M45.405,56.154l-0.37,3.826c-0.761,0.199-1.429,0.184-2.35-0.377l-1.165-3.9L45.405,56.154z          "/>
<linearGradient id="XMLID_37_" gradientUnits="userSpaceOnUse" x1="-28.4316" y1="0.6548" x2="-14.8857" y2="20.4876" gradientTransform="matrix(0.9579 -0.021 0.0844 1.0421 59.8455 29.9322)">
<stop offset="0" style="stop-color:#5AA7E0"/>
<stop offset="1" style="stop-color:#3366CC"/>
</linearGradient>
<path fill="url(#XMLID_37_)" d="M50.177,52.492l2.15,3.254c-0.327,0.771-0.742,1.293-1.434,1.707l-3.116-2.131          L50.177,52.492z"/>
<linearGradient id="XMLID_38_" gradientUnits="userSpaceOnUse" x1="-23.1587" y1="-3.1597" x2="-9.4853" y2="16.8598" gradientTransform="matrix(0.9579 -0.021 0.0844 1.0421 59.8455 29.9322)">
<stop offset="0" style="stop-color:#5AA7E0"/>
<stop offset="1" style="stop-color:#3366CC"/>
</linearGradient>
<path fill="url(#XMLID_38_)" d="M50.67,45.732l3.473,0.92c0.299,0.887,0.386,1.643,0.227,2.535L51.07,49.93L50.67,45.732z"/>
<linearGradient id="XMLID_39_" gradientUnits="userSpaceOnUse" x1="-21.5923" y1="-4.187" x2="-7.9308" y2="15.8149" gradientTransform="matrix(0.9579 -0.021 0.0844 1.0421 59.8455 29.9322)">
<stop offset="0" style="stop-color:#5AA7E0"/>
<stop offset="1" style="stop-color:#3366CC"/>
</linearGradient>
<path fill="url(#XMLID_39_)" d="M46.438,39.934l2.766-1.957c0.789,0.465,1.348,0.992,1.851,1.82l-1.538,3.174L46.438,39.934          z"/>
<linearGradient id="XMLID_40_" gradientUnits="userSpaceOnUse" x1="-29.5835" y1="1.1753" x2="-15.9459" y2="21.1423" gradientTransform="matrix(0.9579 -0.021 0.0844 1.0421 59.8455 29.9322)">
<stop offset="0" style="stop-color:#5AA7E0"/>
<stop offset="1" style="stop-color:#3366CC"/>
</linearGradient>
<path fill="url(#XMLID_40_)" d="M41.672,38.084c-4.875-0.137-8.289,3.841-7.627,8.878c0.656,5.039,4.981,9.336,9.656,9.596          c4.669,0.271,8.075-3.699,7.614-8.867C50.851,42.527,46.536,38.223,41.672,38.084z M47.815,47.537          c0.298,3.053-1.729,5.408-4.522,5.268c-2.796-0.141-5.363-2.691-5.729-5.699c-0.368-3.006,1.66-5.363,4.522-5.27          C44.95,41.936,47.514,44.488,47.815,47.537z"/>
</g>
</g>
</g>
</g>
</g>
</g>
</svg>
