<?xml version="1.0" encoding="UTF-8"?>
<!DOCTYPE svg PUBLIC "-//W3C//DTD SVG 1.1 Tiny//EN" "http://www.w3.org/Graphics/SVG/1.1/DTD/svg11-tiny.dtd">
<svg xmlns="http://www.w3.org/2000/svg" xmlns:xlink="http://www.w3.org/1999/xlink" baseProfile="tiny" height="100px" version="1.1" viewBox="-0.116 -0.791 99 100" width="99px" x="0px" y="0px">
<linearGradient gradientUnits="userSpaceOnUse" id="SVGID_1_" x1="-3.0488" x2="94.8593" y1="3.6479" y2="88.7582">
<stop offset="0" style="stop-color:#C4D76B"/>
<stop offset="0.2566" style="stop-color:#BDD062"/>
<stop offset="0.6755" style="stop-color:#AABE49"/>
<stop offset="1" style="stop-color:#97AC32"/>
</linearGradient>
<polygon fill="url(#SVGID_1_)" points="0,0.14 0,98.426 84.327,98.426 98.735,84.299 98.735,0 "/>
<linearGradient gradientUnits="userSpaceOnUse" id="SVGID_2_" x1="81.0381" x2="92.1214" y1="82.2725" y2="91.907">
<stop offset="0" style="stop-color:#C4D76B"/>
<stop offset="0.2566" style="stop-color:#BDD062"/>
<stop offset="0.6755" style="stop-color:#AABE49"/>
<stop offset="1" style="stop-color:#97AC32"/>
</linearGradient>
<path d="M84.327,98.49c0,0,0.664-11.49-2.215-17.454c0,0,4.449,4.146,16.623,3.263L84.327,98.49z" fill="url(#SVGID_2_)"/>
<path d="M91.358,10.637l2.458-3.83l-2.349-3.581h1.199l1.852,2.976l1.826-2.976h1.072l-2.369,3.626l2.471,3.785  h-1.206L94.358,7.47l-1.939,3.167H91.358z" fill="#991313"/>
</svg>
