<?xml version="1.0" encoding="UTF-8"?>
<!DOCTYPE svg PUBLIC "-//W3C//DTD SVG 1.1 Tiny//EN" "http://www.w3.org/Graphics/SVG/1.1/DTD/svg11-tiny.dtd">
<svg baseProfile="tiny" version="1.1" xmlns="http://www.w3.org/2000/svg" xmlns:xlink="http://www.w3.org/1999/xlink" width="100%" height="100%" viewBox="0 0 36 44">
<g>
<g>
<rect fill="none" width="36" height="44"/>
<g>
<g>
<linearGradient id="XMLID_3_" gradientUnits="userSpaceOnUse" x1="-14.4209" y1="4.2197" x2="18.0901" y2="43.6343">
<stop offset="0" style="stop-color:#FFFFFF"/>
<stop offset="0.1142" style="stop-color:#E0EAF3"/>
<stop offset="0.35" style="stop-color:#A2C2DD"/>
<stop offset="0.4825" style="stop-color:#8CA9CF"/>
<stop offset="0.7" style="stop-color:#6C83BB"/>
<stop offset="0.7458" style="stop-color:#637DB5"/>
<stop offset="0.8189" style="stop-color:#4C6EA4"/>
<stop offset="0.9097" style="stop-color:#265689"/>
<stop offset="0.9888" style="stop-color:#003D6D"/>
<stop offset="1" style="stop-color:#003D6D"/>
</linearGradient>
<path fill="url(#XMLID_3_)" d="M4.926,32.898V21.056c-0.156-0.018-1.505-0.163-2.099-0.745v14.748h14.597v-2.16H4.926z"/>
<linearGradient id="XMLID_4_" gradientUnits="userSpaceOnUse" x1="3.5293" y1="-10.4531" x2="35.8526" y2="28.7339">
<stop offset="0" style="stop-color:#FFFFFF"/>
<stop offset="0.1142" style="stop-color:#E0EAF3"/>
<stop offset="0.35" style="stop-color:#A2C2DD"/>
<stop offset="0.4825" style="stop-color:#8CA9CF"/>
<stop offset="0.7" style="stop-color:#6C83BB"/>
<stop offset="0.7458" style="stop-color:#637DB5"/>
<stop offset="0.8189" style="stop-color:#4C6EA4"/>
<stop offset="0.9097" style="stop-color:#265689"/>
<stop offset="0.9888" style="stop-color:#003D6D"/>
<stop offset="1" style="stop-color:#003D6D"/>
</linearGradient>
<path fill="url(#XMLID_4_)" d="M32.229,11.113H12.192c0,0.814,0,1.568-0.003,2.16h17.938v4.547h2.102V11.113z"/>
</g>
<path fill="#496DA2" d="M28.954,20.28v2.103h-5.772V20.28h-3.3v14.812h3.3v-2.096h5.772v2.096h3.328V20.28H28.954z      M22.154,34.199h-1.36v-2.08h1.36V34.199z M22.154,30.408h-1.36v-2.08h1.36V30.408z M22.154,26.908h-1.36v-2.08h1.36V26.908z      M22.154,23.118h-1.36v-2.08h1.36V23.118z M28.982,30.894h-5.801v-6.409h5.801V30.894z M31.343,34.199h-1.36v-2.08h1.36V34.199z      M31.343,30.408h-1.36v-2.08h1.36V30.408z M31.343,26.908h-1.36v-2.08h1.36V26.908z M31.343,23.118h-1.36v-2.08h1.36V23.118z"/>
<path fill="#496DA2" d="M18.353,18.278V16.27H15.99v2.368l-7.078,7.101H6.327l4.8,4.751v-0.02h6.297V18.278H18.353z      M15.99,25.739h-4.729l4.729-4.735V25.739z"/>
<path fill="#496DA2" d="M8.597,3.858v8.868c-1.074-0.134-2.391,0.17-3.513,0.904c-1.92,1.259-2.533,3.282-1.652,4.625     c0.877,1.34,3.191,1.242,5.111-0.019c1.119-0.8,1.91-1.999,1.752-3.6l-0.004-8.142l3.837,1.919l0.667-1.451L8.597,3.858z"/>
</g>
</g>
</g>
</svg>
