<?xml version="1.0" encoding="UTF-8"?>
<!DOCTYPE svg PUBLIC "-//W3C//DTD SVG 1.1 Tiny//EN" "http://www.w3.org/Graphics/SVG/1.1/DTD/svg11-tiny.dtd">
<svg baseProfile="tiny" version="1.0" xmlns="http://www.w3.org/2000/svg" xmlns:xlink="http://www.w3.org/1999/xlink" width="100%" height="100%" viewBox="0 0 21 21">
<g>
<path fill="url(#XMLID_2_)" stroke="#FFFFFF" stroke-width="0.5" d="M17.15,2.265L6.534,4.294v10.155   c-0.07-0.01-0.134-0.029-0.212-0.04C4.931,14.22,3.2,15.053,2.46,16.257c-0.744,1.197-0.212,2.326,1.181,2.504   c1.395,0.181,3.122-0.646,3.859-1.851c0.214-0.342,0.31-0.674,0.322-0.981c0.003-0.013,0.013-0.021,0.019-0.03   c0-0.323-0.07-8.833-0.07-8.833l8.106-1.786l0.031,7.167c-0.072-0.015-0.137-0.033-0.213-0.046   c-1.393-0.183-3.122,0.65-3.855,1.853c-0.747,1.201-0.215,2.324,1.174,2.505c1.398,0.179,3.123-0.644,3.859-1.849   c0.212-0.346,0.307-0.674,0.324-0.986c0.008-0.013,0.014-0.021,0.02-0.029C17.22,13.567,17.15,2.265,17.15,2.265z"/>
<rect fill="none" width="21" height="21"/>
<defs>
<linearGradient id="XMLID_2_" gradientUnits="userSpaceOnUse" x1="2.124" y1="10.5254" x2="17.2173" y2="10.5254">
<stop offset="0" style="stop-color:#FF7800"/>
<stop offset="0.4" style="stop-color:#FF3300"/>
<stop offset="1" style="stop-color:#8A1700"/>
</linearGradient>
</defs>
</g>
</svg>
