<?xml version="1.0" encoding="UTF-8"?>
<!DOCTYPE svg PUBLIC "-//W3C//DTD SVG 1.1 Tiny//EN" "http://www.w3.org/Graphics/SVG/1.1/DTD/svg11-tiny.dtd">
<svg baseProfile="tiny" version="1.0" xmlns="http://www.w3.org/2000/svg" xmlns:xlink="http://www.w3.org/1999/xlink" width="100%" height="100%" viewBox="0 0 21 21">
<g>
<rect fill="none" width="21" height="21"/>
<g>
<path fill="#FFFFFF" d="M5.148,3.479C3.885,3.45,2.996,3.83,3.006,5.609v10.113c-0.01,1.748,0.73,2.097,2.143,2.129h10.709    c1.639,0.056,2.142-0.674,2.143-2.129V5.609c-0.001-1.575-0.74-2.159-2.143-2.13H5.148z"/>
<path fill="url(#XMLID_2_)" d="M17.535,16.263c0,0.645-0.524,1.171-1.17,1.171H4.67c-0.646,0-1.17-0.526-1.17-1.171V5.151    c0-0.645,0.523-1.169,1.17-1.169h11.695c0.646,0,1.17,0.524,1.17,1.169V16.263z"/>
<rect x="4.67" y="11.586" fill="#FFFFFF" width="1.754" height="1.754"/>
<rect x="4.67" y="15.095" fill="#FFFFFF" width="1.754" height="1.754"/>
<rect x="14.611" y="8.076" fill="#FFFFFF" width="1.754" height="1.756"/>
<rect x="14.611" y="4.567" fill="#FFFFFF" width="1.754" height="1.754"/>
<rect x="14.611" y="11.586" fill="#FFFFFF" width="1.754" height="1.754"/>
<rect x="14.611" y="15.095" fill="#FFFFFF" width="1.754" height="1.754"/>
<rect x="7.594" y="3.982" fill="#CBCBCB" width="5.848" height="3.509"/>
<rect x="7.594" y="8.66" fill="#CBCBCB" width="5.848" height="4.095"/>
<rect x="7.594" y="13.925" fill="#CBCBCB" width="5.848" height="3.509"/>
<defs>
<linearGradient id="XMLID_2_" gradientUnits="userSpaceOnUse" x1="3.4541" y1="4.7813" x2="17.5803" y2="16.6345">
<stop offset="0" style="stop-color:#AFAFAE"/>
<stop offset="1" style="stop-color:#121212"/>
</linearGradient>
</defs>
</g>
<rect x="4.653" y="8.07" fill="#FFFFFF" width="1.754" height="1.756"/>
<rect x="4.653" y="4.562" fill="#FFFFFF" width="1.754" height="1.754"/>
</g>
</svg>
