<?xml version="1.0" encoding="UTF-8" standalone="no"?>
<!DOCTYPE svg PUBLIC "-//W3C//DTD SVG 1.1 Tiny//EN" "http://www.w3.org/Graphics/SVG/1.1/DTD/svg11-tiny.dtd">
<svg xmlns="http://www.w3.org/2000/svg" xmlns:xlink="http://www.w3.org/1999/xlink" width="70" height="70.008" viewBox="0 0 70 70.008">
<rect fill="none" height="70.008" width="70"/>
<linearGradient id="SVGID_1" gradientUnits="userSpaceOnUse" x1="35" y1="70.01" x2="35" y2="6.1">
<stop stop-color="#4D4D4D" offset="0.14"/>
<stop stop-color="#4D4D4D" offset="0.16"/>
<stop stop-color="#808080" offset="0.28"/>
<stop stop-color="#B3B3B3" offset="0.47"/>
<stop stop-color="#B3B3B3" offset="0.72"/>
<stop stop-color="#B3B3B3" offset="0.76"/>
<stop stop-color="#A1A1A1" offset="0.77"/>
<stop stop-color="#8B8B8B" offset="0.79"/>
<stop stop-color="#7A7A7A" offset="0.81"/>
<stop stop-color="#6F6F6F" offset="0.84"/>
<stop stop-color="#686868" offset="0.88"/>
<stop stop-color="#666666" offset="1"/>
</linearGradient>
<path d="M66.926,67.643c0,1.308-1.059,2.365-2.363,2.365H5.436c-1.305,0-2.363-1.058-2.363-2.365V8.468 c0-1.306,1.059-2.364,2.363-2.364h59.127c1.305,0,2.363,1.058,2.363,2.364V67.643z" fill="url(#SVGID_1)"/>
<path d="M64.333,65.136c0,1.199-0.973,2.174-2.172,2.174H7.865 c-1.199,0-2.17-0.975-2.17-2.174V10.794c0-1.199,0.971-2.173,2.17-2.173h54.295c1.199,0,2.172,0.974,2.172,2.173V65.136z" fill="#333333" stroke="#F2F2F2" stroke-width="0.7238"/>
<linearGradient id="SVGID_2" gradientUnits="userSpaceOnUse" x1="34.79" y1="9.78" x2="34.79" y2="65.29">
<stop stop-color="#FFFFFF" offset="0"/>
<stop stop-color="#000000" offset="1"/>
</linearGradient>
<path d="M62.518,63.237c0,1.134-0.92,2.055-2.051,2.055H9.107 c-1.135,0-2.055-0.921-2.055-2.055V11.838c0-1.134,0.92-2.055,2.055-2.055h51.36c1.131,0,2.051,0.921,2.051,2.055V63.237z" fill="url(#SVGID_2)" fill-opacity="0.21"/>
<linearGradient id="SVGID_3" gradientUnits="userSpaceOnUse" x1="35.34" y1="0.01" x2="35.34" y2="6.2">
<stop stop-color="#4D4D4D" offset="0"/>
<stop stop-color="#525252" offset="0.07"/>
<stop stop-color="#626262" offset="0.16"/>
<stop stop-color="#7C7C7C" offset="0.26"/>
<stop stop-color="#868686" offset="0.29"/>
<stop stop-color="#B3B3B3" offset="0.52"/>
<stop stop-color="#848484" offset="0.82"/>
<stop stop-color="#666666" offset="1"/>
</linearGradient>
<rect fill="url(#SVGID_3)" height="6.188" width="33.874" x="18.406" y="0.008"/>
<line fill="none" stroke="#FFFFFF" stroke-opacity="0.18" stroke-width="1.4991" x1="18.303" x2="52.348" y1="3.005" y2="3.005"/>
</svg>